<?xml version="1.0" encoding="UTF-8" standalone="no"?>
<!-- Created with Inkscape (http://www.inkscape.org/) -->

<svg
   width="134.8707mm"
   height="125.31193mm"
   viewBox="0 0 134.8707 125.31193"
   version="1.1"
   id="svg5"
   inkscape:version="1.1.2 (0a00cf5339, 2022-02-04)"
   sodipodi:docname="Google_evil.svg"
   xmlns:inkscape="http://www.inkscape.org/namespaces/inkscape"
   xmlns:sodipodi="http://sodipodi.sourceforge.net/DTD/sodipodi-0.dtd"
   xmlns="http://www.w3.org/2000/svg"
   xmlns:svg="http://www.w3.org/2000/svg">
  <sodipodi:namedview
     id="namedview7"
     pagecolor="#ffffff"
     bordercolor="#666666"
     borderopacity="1.0"
     inkscape:pageshadow="2"
     inkscape:pageopacity="0.0"
     inkscape:pagecheckerboard="0"
     inkscape:document-units="mm"
     showgrid="false"
     inkscape:zoom="1.1538963"
     inkscape:cx="152.09339"
     inkscape:cy="210.15753"
     inkscape:window-width="1920"
     inkscape:window-height="1016"
     inkscape:window-x="0"
     inkscape:window-y="0"
     inkscape:window-maximized="1"
     inkscape:current-layer="layer1" />
  <defs
     id="defs2" />
  <g
     inkscape:label="Calque 1"
     inkscape:groupmode="layer"
     id="layer1"
     transform="translate(-21.596176,-75.973444)">
    <g
       id="g845"
       transform="matrix(0.26458333,0,0,0.26458333,26.112362,194.88517)">
      <path
         d="m 482.48349,-186.84438 c 0,-15.31226 -1.62192,-30.03556 -4.63406,-44.16994 H 237.80469 v 83.6284 h 137.16843 c -6.02431,26.89459 -24.09717,49.666632 -51.20646,64.978892 v 54.37807 h 82.7181 c 48.19432,-37.69166 75.99873,-93.051312 75.99873,-158.815422 z"
         fill="#4285f4"
         id="path824"
         style="stroke-width:21.3274" />
      <path
         d="m 237.80469,24.189732 c 68.81593,0 126.51006,-19.2384499 168.68007,-52.21869 l -82.7181,-54.37807 c -22.70695,12.95651 -51.66987,20.80895 -85.96197,20.80895 -66.26716,0 -122.5711,-37.887996 -142.72929,-88.928812 H 10.271953 v 55.752262 c 41.938315,70.47558 127.900287,118.96436 227.532737,118.96436 z"
         fill="#34a853"
         id="path826"
         style="stroke-width:21.3274" />
      <path
         d="m 95.0754,-150.7232 c -5.09748,-12.95651 -8.10962,-26.69827 -8.10962,-41.02896 0,-14.33069 3.01214,-28.07245 8.10962,-41.02896 v -55.75227 H 10.271953 c -17.3777558,29.054 -27.341003,61.8379 -27.341003,96.78123 0,34.94333 9.9632472,67.72723 27.341003,96.781222 l 66.035469,-43.581002 z"
         fill="#fbbc05"
         id="path828"
         style="stroke-width:21.3274" />
      <path
         d="m 237.80469,-321.70992 c 37.53595,0 70.90125,10.9934 97.54714,32.19497 l 72.98656,-61.83791 c -44.25533,-34.94332 -101.71777,-56.3412 -170.5337,-56.3412 -99.63245,0 -185.594422,48.48877 -227.532737,119.16067 l 84.803447,55.75227 c 20.15819,-51.04081 76.46213,-88.9288 142.72929,-88.9288 z"
         fill="#ea4335"
         id="path830"
         style="stroke-width:21.3274" />
      <path
         d="M -17.06905,-407.69406 H 492.67846 V 24.189732 H -17.06905 Z"
         fill="none"
         id="path832"
         style="stroke-width:21.3274" />
    </g>
    <path
       d="m 54.462038,75.974944 c -6.48926,0.0658 -11.383237,2.10406 -14.918213,5.79856 -3.649021,3.81365 -5.84677,9.38642 -6.886121,16.36558 v 0.0156 l 0.0051,0.0209 c 3.458595,11.709646 7.974836,18.923206 13.015072,23.120966 5.040209,4.19786 10.598528,5.37379 16.120459,5.00911 5.521903,-0.36477 11.011057,-2.26547 15.920927,-4.2091 4.902208,-1.9406 9.234046,-3.92232 12.436964,-4.4757 3.202922,0.55338 7.534767,2.5351 12.436954,4.4757 5.18188,2.25853 10.12143,3.78513 15.92094,4.2091 4.9125,0.32441 10.02282,-0.5939 15.77983,-5.00916 5.75701,-4.4153 11.13672,-15.67118 13.3557,-23.120916 l 0.005,-0.0209 v -0.0156 c -1.05973,-5.97279 -1.73356,-9.37995 -5.05496,-14.13297 -2.5698,-3.63655 -6.08177,-6.1309 -10.67707,-7.28872 -9.18491,-2.31418 -22.6879,0.70217 -41.766889,10.53047 -14.872982,-7.66159 -26.356333,-11.18884 -35.049594,-11.27292 -0.0036,-4e-5 -0.0067,3e-5 -0.01023,0 -0.212663,-0.002 -0.425058,-0.002 -0.634382,0 z m 6.261947,19.88446 c 7.431093,0.0569 12.368269,5.822536 18.361267,9.767096 -11.024465,1.54454 -25.972289,7.98189 -28.444872,-6.760616 3.882951,-2.17748 7.175793,-3.02872 10.083605,-3.00648 z m 58.035705,0 c 2.90783,-0.0222 6.19557,0.829 10.0785,3.00648 -2.47256,14.742506 -17.42038,8.305156 -28.44487,6.760616 5.99301,-3.94456 10.9353,-9.710226 18.36637,-9.767096 z"
       color="#000000"
       font-family="Sans"
       font-weight="400"
       overflow="visible"
       style="line-height:normal;-inkscape-font-specification:Sans;text-indent:0;text-align:start;text-transform:none;stroke-width:0.433615;marker:none"
       id="path856" />
  </g>
</svg>